<?xml version="1.0" encoding="UTF-8"?>
<svg xmlns="http://www.w3.org/2000/svg" width="1200" height="820" viewBox="0 0 1200 820" role="img" aria-label="Lemonade drink">
  <defs>
    <linearGradient id="bg" x1="0" y1="0" x2="1" y2="1">
      <stop offset="0" stop-color="#fff8ec"/>
      <stop offset="0.55" stop-color="#ead9bd"/>
      <stop offset="1" stop-color="#d0a06a"/>
    </linearGradient>
    <radialGradient id="glow" cx="50%" cy="34%" r="58%">
      <stop offset="0" stop-color="#ffffff" stop-opacity="0.88"/>
      <stop offset="1" stop-color="#ffffff" stop-opacity="0"/>
    </radialGradient>
    <filter id="shadow" x="-20%" y="-20%" width="140%" height="140%">
      <feDropShadow dx="0" dy="26" stdDeviation="28" flood-color="#3a2018" flood-opacity="0.22"/>
    </filter>
  </defs>
  <rect width="1200" height="820" fill="url(#bg)"/>
  <rect width="1200" height="820" fill="url(#glow)"/>
  <g opacity="0.13" stroke="#7b4a34" stroke-width="2">
    <path d="M0 160h1200M0 320h1200M0 480h1200M0 640h1200"/>
    <path d="M160 0v820M320 0v820M480 0v820M640 0v820M800 0v820M960 0v820M1120 0v820"/>
  </g>
  <g filter="url(#shadow)">
    <ellipse cx="600" cy="512" rx="330" ry="118" fill="#c48b56" opacity="0.24"/>
    <circle cx="600" cy="390" r="238" fill="#fffaf1"/>
    <circle cx="600" cy="390" r="198" fill="#f8ead3" stroke="#c99a68" stroke-width="16"/>
    <circle cx="600" cy="390" r="122" fill="#fffaf1"/>
    
      <rect x="472" y="300" width="240" height="286" rx="54" fill="#fff8ec" stroke="#7b4a34" stroke-width="12"/>
      <rect x="492" y="390" width="200" height="164" rx="36" fill="#f0c84d"/>
      <circle cx="640" cy="386" r="36" fill="#f6df76" stroke="#fff8ec" stroke-width="8"/>
      <path d="M690 286l70-82" stroke="#7b4a34" stroke-width="12" stroke-linecap="round"/>
      <circle cx="548" cy="440" r="13" fill="#fff8ec"/><circle cx="613" cy="505" r="16" fill="#fff8ec"/>
    
  </g>
  <g fill="#2f211a" opacity="0.42">
    <circle cx="145" cy="120" r="8"/><circle cx="181" cy="144" r="5"/><circle cx="1020" cy="118" r="7"/><circle cx="1076" cy="164" r="5"/>
  </g>
  <path d="M112 682c78-44 170-56 278-28 96 25 195 21 298-13 89-29 181-25 276 11" fill="none" stroke="#d8a83f" stroke-width="20" stroke-linecap="round" opacity="0.22"/>
</svg>